<mxfile host="app.diagrams.net" modified="2022-06-23T15:06:45.857Z" agent="5.0 (Windows NT 10.0; Win64; x64) AppleWebKit/537.36 (KHTML, like Gecko) Chrome/103.0.0.0 Safari/537.36" etag="UG-Ujki0leglNPIU6ude" version="20.0.1" type="github">
  <diagram name="Page-1" id="c7488fd3-1785-93aa-aadb-54a6760d102a">
    <mxGraphModel dx="1489" dy="662" grid="1" gridSize="10" guides="1" tooltips="1" connect="1" arrows="1" fold="1" page="1" pageScale="1" pageWidth="1169" pageHeight="827" background="none" math="0" shadow="0">
      <root>
        <mxCell id="0" />
        <mxCell id="1" parent="0" />
        <mxCell id="2b4e8129b02d487f-1" value="GR Process" style="swimlane;html=1;childLayout=stackLayout;horizontal=1;startSize=20;horizontalStack=0;rounded=0;shadow=0;labelBackgroundColor=none;strokeWidth=1;fontFamily=Verdana;fontSize=8;align=center;" parent="1" vertex="1">
          <mxGeometry width="1140" height="820" as="geometry" />
        </mxCell>
        <mxCell id="Em4Xbs_RXhP2ANwOyE7_-39" value="" style="edgeStyle=none;rounded=0;orthogonalLoop=1;jettySize=auto;html=1;fontFamily=Helvetica;fontSize=12;fontColor=#FFFFFF;exitX=-0.002;exitY=0.911;exitDx=0;exitDy=0;exitPerimeter=0;" edge="1" parent="2b4e8129b02d487f-1" source="Em4Xbs_RXhP2ANwOyE7_-24" target="Em4Xbs_RXhP2ANwOyE7_-38">
          <mxGeometry relative="1" as="geometry" />
        </mxCell>
        <mxCell id="Em4Xbs_RXhP2ANwOyE7_-50" value="" style="edgeStyle=none;rounded=0;orthogonalLoop=1;jettySize=auto;html=1;fontFamily=Helvetica;fontSize=12;fontColor=#FFFFFF;" edge="1" parent="2b4e8129b02d487f-1">
          <mxGeometry relative="1" as="geometry">
            <mxPoint x="540" y="120" as="sourcePoint" />
            <mxPoint x="540" y="180" as="targetPoint" />
          </mxGeometry>
        </mxCell>
        <mxCell id="Em4Xbs_RXhP2ANwOyE7_-51" style="edgeStyle=none;rounded=0;orthogonalLoop=1;jettySize=auto;html=1;fontFamily=Helvetica;fontSize=12;fontColor=#FFFFFF;entryX=0.5;entryY=0;entryDx=0;entryDy=0;entryPerimeter=0;" edge="1" parent="2b4e8129b02d487f-1" target="Em4Xbs_RXhP2ANwOyE7_-27">
          <mxGeometry relative="1" as="geometry">
            <mxPoint x="400" y="120" as="sourcePoint" />
          </mxGeometry>
        </mxCell>
        <mxCell id="2b4e8129b02d487f-2" value="Shipping / PS Team" style="swimlane;html=1;startSize=20;horizontal=0;" parent="2b4e8129b02d487f-1" vertex="1">
          <mxGeometry y="20" width="1140" height="130" as="geometry">
            <mxRectangle y="20" width="990" height="20" as="alternateBounds" />
          </mxGeometry>
        </mxCell>
        <mxCell id="Em4Xbs_RXhP2ANwOyE7_-25" value="" style="edgeStyle=orthogonalEdgeStyle;curved=1;rounded=0;orthogonalLoop=1;jettySize=auto;html=1;fontFamily=Helvetica;fontSize=12;fontColor=#FFFFFF;" edge="1" parent="2b4e8129b02d487f-2" source="Em4Xbs_RXhP2ANwOyE7_-11" target="Em4Xbs_RXhP2ANwOyE7_-24">
          <mxGeometry relative="1" as="geometry" />
        </mxCell>
        <mxCell id="Em4Xbs_RXhP2ANwOyE7_-11" value="Shipping Document" style="strokeWidth=2;html=1;shape=mxgraph.flowchart.document2;whiteSpace=wrap;size=0.25;fillColor=#0066CC;fontColor=#FFFFFF;" vertex="1" parent="2b4e8129b02d487f-2">
          <mxGeometry x="160" y="30" width="90" height="70" as="geometry" />
        </mxCell>
        <mxCell id="Em4Xbs_RXhP2ANwOyE7_-24" value="PS Team" style="rounded=1;whiteSpace=wrap;html=1;fillColor=#0066CC;fontColor=#FFFFFF;strokeWidth=2;" vertex="1" parent="2b4e8129b02d487f-2">
          <mxGeometry x="300" y="35" width="350" height="60" as="geometry" />
        </mxCell>
        <mxCell id="Em4Xbs_RXhP2ANwOyE7_-56" value="" style="edgeStyle=none;rounded=0;orthogonalLoop=1;jettySize=auto;html=1;fontFamily=Helvetica;fontSize=12;fontColor=#FFFFFF;" edge="1" parent="2b4e8129b02d487f-2" source="Em4Xbs_RXhP2ANwOyE7_-55" target="Em4Xbs_RXhP2ANwOyE7_-11">
          <mxGeometry relative="1" as="geometry" />
        </mxCell>
        <mxCell id="Em4Xbs_RXhP2ANwOyE7_-55" value="Shipping Team" style="rounded=1;whiteSpace=wrap;html=1;fillColor=#0066CC;fontColor=#FFFFFF;strokeWidth=2;" vertex="1" parent="2b4e8129b02d487f-2">
          <mxGeometry x="40" y="35" width="80" height="60" as="geometry" />
        </mxCell>
        <mxCell id="Em4Xbs_RXhP2ANwOyE7_-58" value="" style="edgeStyle=orthogonalEdgeStyle;rounded=0;orthogonalLoop=1;jettySize=auto;html=1;fontFamily=Helvetica;fontSize=12;fontColor=#FFFFFF;elbow=vertical;" edge="1" parent="2b4e8129b02d487f-1" source="Em4Xbs_RXhP2ANwOyE7_-55" target="Em4Xbs_RXhP2ANwOyE7_-57">
          <mxGeometry relative="1" as="geometry">
            <Array as="points">
              <mxPoint x="80" y="380" />
              <mxPoint x="120" y="380" />
            </Array>
          </mxGeometry>
        </mxCell>
        <mxCell id="Em4Xbs_RXhP2ANwOyE7_-59" value="" style="edgeStyle=elbowEdgeStyle;rounded=0;orthogonalLoop=1;jettySize=auto;html=1;fontFamily=Helvetica;fontSize=12;fontColor=#FFFFFF;entryX=0.5;entryY=0;entryDx=0;entryDy=0;elbow=vertical;" edge="1" parent="2b4e8129b02d487f-1" target="Em4Xbs_RXhP2ANwOyE7_-60">
          <mxGeometry relative="1" as="geometry">
            <mxPoint x="320" y="120" as="sourcePoint" />
            <mxPoint x="270" y="400" as="targetPoint" />
            <Array as="points">
              <mxPoint x="260" y="380" />
            </Array>
          </mxGeometry>
        </mxCell>
        <mxCell id="Em4Xbs_RXhP2ANwOyE7_-64" style="rounded=0;orthogonalLoop=1;jettySize=auto;elbow=vertical;html=1;exitX=0.835;exitY=0.994;exitDx=0;exitDy=0;entryX=0.218;entryY=0.022;entryDx=0;entryDy=0;entryPerimeter=0;fontFamily=Helvetica;fontSize=12;fontColor=#FFFFFF;exitPerimeter=0;" edge="1" parent="2b4e8129b02d487f-1" source="Em4Xbs_RXhP2ANwOyE7_-55" target="Em4Xbs_RXhP2ANwOyE7_-38">
          <mxGeometry relative="1" as="geometry" />
        </mxCell>
        <mxCell id="Em4Xbs_RXhP2ANwOyE7_-65" value="" style="edgeStyle=none;rounded=0;orthogonalLoop=1;jettySize=auto;html=1;fontFamily=Helvetica;fontSize=12;fontColor=#FFFFFF;elbow=vertical;" edge="1" parent="2b4e8129b02d487f-1" source="Em4Xbs_RXhP2ANwOyE7_-63" target="Em4Xbs_RXhP2ANwOyE7_-36">
          <mxGeometry relative="1" as="geometry" />
        </mxCell>
        <mxCell id="Em4Xbs_RXhP2ANwOyE7_-68" value="" style="edgeStyle=none;rounded=0;orthogonalLoop=1;jettySize=auto;html=1;fontFamily=Helvetica;fontSize=12;fontColor=#FFFFFF;elbow=vertical;" edge="1" parent="2b4e8129b02d487f-1" source="Em4Xbs_RXhP2ANwOyE7_-66" target="Em4Xbs_RXhP2ANwOyE7_-67">
          <mxGeometry relative="1" as="geometry" />
        </mxCell>
        <mxCell id="Em4Xbs_RXhP2ANwOyE7_-9" value="System" style="swimlane;html=1;startSize=20;horizontal=0;" vertex="1" parent="2b4e8129b02d487f-1">
          <mxGeometry y="150" width="1140" height="270" as="geometry" />
        </mxCell>
        <mxCell id="Em4Xbs_RXhP2ANwOyE7_-27" value="Upload COA" style="rounded=1;whiteSpace=wrap;html=1;fillColor=#0066CC;fontColor=#FFFFFF;strokeWidth=2;" vertex="1" parent="Em4Xbs_RXhP2ANwOyE7_-9">
          <mxGeometry x="330" y="30" width="120" height="50" as="geometry" />
        </mxCell>
        <mxCell id="Em4Xbs_RXhP2ANwOyE7_-34" value="SAP EWM" style="strokeWidth=2;html=1;shape=mxgraph.flowchart.stored_data;whiteSpace=wrap;fontFamily=Helvetica;fontSize=12;fontColor=#FFFFFF;fillColor=#0066CC;" vertex="1" parent="Em4Xbs_RXhP2ANwOyE7_-9">
          <mxGeometry x="480" y="112.5" width="170" height="60" as="geometry" />
        </mxCell>
        <mxCell id="Em4Xbs_RXhP2ANwOyE7_-36" value="COA Website" style="strokeWidth=2;html=1;shape=mxgraph.flowchart.stored_data;whiteSpace=wrap;fontFamily=Helvetica;fontSize=12;fontColor=#FFFFFF;fillColor=#0066CC;" vertex="1" parent="Em4Xbs_RXhP2ANwOyE7_-9">
          <mxGeometry x="345" y="115" width="105" height="55" as="geometry" />
        </mxCell>
        <mxCell id="Em4Xbs_RXhP2ANwOyE7_-37" value="" style="edgeStyle=none;rounded=0;orthogonalLoop=1;jettySize=auto;html=1;fontFamily=Helvetica;fontSize=12;fontColor=#FFFFFF;" edge="1" parent="Em4Xbs_RXhP2ANwOyE7_-9" source="Em4Xbs_RXhP2ANwOyE7_-27" target="Em4Xbs_RXhP2ANwOyE7_-36">
          <mxGeometry relative="1" as="geometry" />
        </mxCell>
        <mxCell id="Em4Xbs_RXhP2ANwOyE7_-45" value="" style="edgeStyle=none;rounded=0;orthogonalLoop=1;jettySize=auto;html=1;fontFamily=Helvetica;fontSize=12;fontColor=#FFFFFF;" edge="1" parent="Em4Xbs_RXhP2ANwOyE7_-9" source="Em4Xbs_RXhP2ANwOyE7_-38" target="Em4Xbs_RXhP2ANwOyE7_-44">
          <mxGeometry relative="1" as="geometry" />
        </mxCell>
        <mxCell id="Em4Xbs_RXhP2ANwOyE7_-38" value="Create data to eZconntect" style="rounded=1;whiteSpace=wrap;html=1;fillColor=#0066CC;fontColor=#FFFFFF;strokeWidth=2;" vertex="1" parent="Em4Xbs_RXhP2ANwOyE7_-9">
          <mxGeometry x="134" y="30" width="120" height="60" as="geometry" />
        </mxCell>
        <mxCell id="Em4Xbs_RXhP2ANwOyE7_-44" value="eZConnect" style="strokeWidth=2;html=1;shape=mxgraph.flowchart.stored_data;whiteSpace=wrap;fontFamily=Helvetica;fontSize=12;fontColor=#FFFFFF;fillColor=#0066CC;" vertex="1" parent="Em4Xbs_RXhP2ANwOyE7_-9">
          <mxGeometry x="134" y="120" width="120" height="60" as="geometry" />
        </mxCell>
        <mxCell id="Em4Xbs_RXhP2ANwOyE7_-62" value="" style="edgeStyle=none;rounded=0;orthogonalLoop=1;jettySize=auto;html=1;fontFamily=Helvetica;fontSize=12;fontColor=#FFFFFF;exitX=0.439;exitY=1.022;exitDx=0;exitDy=0;exitPerimeter=0;" edge="1" parent="Em4Xbs_RXhP2ANwOyE7_-9" source="Em4Xbs_RXhP2ANwOyE7_-61" target="Em4Xbs_RXhP2ANwOyE7_-34">
          <mxGeometry relative="1" as="geometry" />
        </mxCell>
        <mxCell id="Em4Xbs_RXhP2ANwOyE7_-61" value="Create PO/IBD in SAP ECC" style="rounded=1;whiteSpace=wrap;html=1;fillColor=#0066CC;fontColor=#FFFFFF;strokeWidth=2;" vertex="1" parent="Em4Xbs_RXhP2ANwOyE7_-9">
          <mxGeometry x="460" y="30" width="190" height="50" as="geometry" />
        </mxCell>
        <mxCell id="Em4Xbs_RXhP2ANwOyE7_-71" value="" style="edgeStyle=none;rounded=0;orthogonalLoop=1;jettySize=auto;html=1;fontFamily=Helvetica;fontSize=12;fontColor=#FFFFFF;elbow=vertical;" edge="1" parent="Em4Xbs_RXhP2ANwOyE7_-9" source="Em4Xbs_RXhP2ANwOyE7_-67" target="Em4Xbs_RXhP2ANwOyE7_-34">
          <mxGeometry relative="1" as="geometry" />
        </mxCell>
        <mxCell id="Em4Xbs_RXhP2ANwOyE7_-67" value="/SCWM/MAT1" style="rounded=1;whiteSpace=wrap;html=1;absoluteArcSize=1;arcSize=14;strokeWidth=2;fontFamily=Helvetica;fontSize=12;fontColor=#FFFFFF;fillColor=#0066CC;" vertex="1" parent="Em4Xbs_RXhP2ANwOyE7_-9">
          <mxGeometry x="490" y="200" width="100" height="50" as="geometry" />
        </mxCell>
        <mxCell id="2b4e8129b02d487f-3" value="Goods Receiving Team" style="swimlane;html=1;startSize=20;horizontal=0;" parent="2b4e8129b02d487f-1" vertex="1">
          <mxGeometry y="420" width="1140" height="370" as="geometry" />
        </mxCell>
        <mxCell id="Em4Xbs_RXhP2ANwOyE7_-10" value="Stock arrival" style="strokeWidth=2;html=1;shape=mxgraph.flowchart.start_2;whiteSpace=wrap;fillColor=#006633;fontColor=#FFFFFF;" vertex="1" parent="2b4e8129b02d487f-3">
          <mxGeometry x="60" y="240" width="80" height="60" as="geometry" />
        </mxCell>
        <mxCell id="Em4Xbs_RXhP2ANwOyE7_-72" value="" style="edgeStyle=none;rounded=0;orthogonalLoop=1;jettySize=auto;html=1;fontFamily=Helvetica;fontSize=12;fontColor=#FFFFFF;elbow=vertical;entryX=0.164;entryY=0;entryDx=0;entryDy=0;entryPerimeter=0;" edge="1" parent="2b4e8129b02d487f-3" source="Em4Xbs_RXhP2ANwOyE7_-57" target="Em4Xbs_RXhP2ANwOyE7_-69">
          <mxGeometry relative="1" as="geometry" />
        </mxCell>
        <mxCell id="Em4Xbs_RXhP2ANwOyE7_-57" value="Email with Container ETA Information" style="whiteSpace=wrap;html=1;fillColor=#0066CC;fontColor=#FFFFFF;rounded=1;strokeWidth=2;" vertex="1" parent="2b4e8129b02d487f-3">
          <mxGeometry x="80" y="20" width="100" height="60" as="geometry" />
        </mxCell>
        <mxCell id="Em4Xbs_RXhP2ANwOyE7_-73" value="" style="edgeStyle=none;rounded=0;orthogonalLoop=1;jettySize=auto;html=1;fontFamily=Helvetica;fontSize=12;fontColor=#FFFFFF;elbow=vertical;entryX=0.418;entryY=-0.033;entryDx=0;entryDy=0;entryPerimeter=0;" edge="1" parent="2b4e8129b02d487f-3" source="Em4Xbs_RXhP2ANwOyE7_-60" target="Em4Xbs_RXhP2ANwOyE7_-69">
          <mxGeometry relative="1" as="geometry" />
        </mxCell>
        <mxCell id="Em4Xbs_RXhP2ANwOyE7_-60" value="Email with Packing List" style="whiteSpace=wrap;html=1;fillColor=#0066CC;fontColor=#FFFFFF;rounded=1;strokeWidth=2;" vertex="1" parent="2b4e8129b02d487f-3">
          <mxGeometry x="230" y="20" width="80" height="60" as="geometry" />
        </mxCell>
        <mxCell id="Em4Xbs_RXhP2ANwOyE7_-63" value="Check COA" style="rounded=1;whiteSpace=wrap;html=1;absoluteArcSize=1;arcSize=14;strokeWidth=2;fontFamily=Helvetica;fontSize=12;fontColor=#FFFFFF;fillColor=#0066CC;" vertex="1" parent="2b4e8129b02d487f-3">
          <mxGeometry x="345" y="25" width="90" height="45" as="geometry" />
        </mxCell>
        <mxCell id="Em4Xbs_RXhP2ANwOyE7_-66" value="Check UOM" style="rounded=1;whiteSpace=wrap;html=1;absoluteArcSize=1;arcSize=14;strokeWidth=2;fontFamily=Helvetica;fontSize=12;fontColor=#FFFFFF;fillColor=#0066CC;" vertex="1" parent="2b4e8129b02d487f-3">
          <mxGeometry x="495" y="25" width="90" height="45" as="geometry" />
        </mxCell>
        <mxCell id="Em4Xbs_RXhP2ANwOyE7_-74" value="" style="edgeStyle=none;rounded=0;orthogonalLoop=1;jettySize=auto;html=1;fontFamily=Helvetica;fontSize=12;fontColor=#FFFFFF;elbow=vertical;exitX=0.67;exitY=-0.057;exitDx=0;exitDy=0;exitPerimeter=0;" edge="1" parent="2b4e8129b02d487f-3" source="Em4Xbs_RXhP2ANwOyE7_-69" target="Em4Xbs_RXhP2ANwOyE7_-63">
          <mxGeometry relative="1" as="geometry" />
        </mxCell>
        <mxCell id="Em4Xbs_RXhP2ANwOyE7_-75" value="" style="edgeStyle=none;rounded=0;orthogonalLoop=1;jettySize=auto;html=1;fontFamily=Helvetica;fontSize=12;fontColor=#FFFFFF;elbow=vertical;entryX=0.391;entryY=1.03;entryDx=0;entryDy=0;entryPerimeter=0;exitX=0.865;exitY=0;exitDx=0;exitDy=0;exitPerimeter=0;" edge="1" parent="2b4e8129b02d487f-3" source="Em4Xbs_RXhP2ANwOyE7_-69" target="Em4Xbs_RXhP2ANwOyE7_-66">
          <mxGeometry relative="1" as="geometry" />
        </mxCell>
        <mxCell id="Em4Xbs_RXhP2ANwOyE7_-69" value="Preparation" style="rounded=1;whiteSpace=wrap;html=1;absoluteArcSize=1;arcSize=14;strokeWidth=2;fontFamily=Helvetica;fontSize=12;fontColor=#FFFFFF;fillColor=#0066CC;" vertex="1" parent="2b4e8129b02d487f-3">
          <mxGeometry x="40" y="110" width="520" height="50" as="geometry" />
        </mxCell>
        <mxCell id="Em4Xbs_RXhP2ANwOyE7_-70" style="rounded=0;orthogonalLoop=1;jettySize=auto;html=1;entryX=0.309;entryY=-0.033;entryDx=0;entryDy=0;entryPerimeter=0;fontFamily=Helvetica;fontSize=12;fontColor=#FFFFFF;elbow=vertical;" edge="1" parent="2b4e8129b02d487f-1" source="Em4Xbs_RXhP2ANwOyE7_-44" target="Em4Xbs_RXhP2ANwOyE7_-69">
          <mxGeometry relative="1" as="geometry" />
        </mxCell>
      </root>
    </mxGraphModel>
  </diagram>
</mxfile>
